<svg xmlns="http://www.w3.org/2000/svg" width="60" height="42.362" viewBox="0 0 60 42.362">
  <g id="ico_coupongreen" transform="translate(-12.7 -23.7)">
    <path id="Path_384" data-name="Path 384" d="M14.311,66.062H71.089A1.615,1.615,0,0,0,72.7,64.452V52.21a1.462,1.462,0,0,0-.483-1.128,2.037,2.037,0,0,0-1.208-.483h-.322a5.8,5.8,0,1,1,0-11.6h.322a2.17,2.17,0,0,0,1.208-.4,1.639,1.639,0,0,0,.483-1.208V25.311A1.615,1.615,0,0,0,71.089,23.7H14.311A1.615,1.615,0,0,0,12.7,25.311V37.552a1.615,1.615,0,0,0,1.611,1.611,5.8,5.8,0,0,1,0,11.6A1.615,1.615,0,0,0,12.7,52.371V64.613A1.592,1.592,0,0,0,14.311,66.062ZM15.921,53.74a9,9,0,0,0,0-17.718v-9.1H53.21V28.13a1.611,1.611,0,0,0,3.221,0V26.921H69.479v9.1a9.034,9.034,0,0,0,0,17.879V63H56.512V61.794a1.611,1.611,0,0,0-3.221,0V63H15.921Z" transform="translate(0)" fill="#d4f1d4"/>
    <path id="Path_385" data-name="Path 385" d="M64.872,62.191a1.777,1.777,0,0,0,1.772-1.772V54.572a1.772,1.772,0,1,0-3.544,0v5.847A1.777,1.777,0,0,0,64.872,62.191Z" transform="translate(-10.04 -6.255)" fill="#d4f1d4"/>
    <path id="Path_386" data-name="Path 386" d="M64.872,46.091a1.777,1.777,0,0,0,1.772-1.772V38.472a1.772,1.772,0,1,0-3.544,0v5.847A1.777,1.777,0,0,0,64.872,46.091Z" transform="translate(-10.04 -2.794)" fill="#d4f1d4"/>
  </g>
</svg>
