<svg width="2007" height="633" xmlns="http://www.w3.org/2000/svg" xmlns:xlink="http://www.w3.org/1999/xlink" xml:space="preserve" overflow="hidden"><defs><filter id="fx0" x="-10%" y="-10%" width="120%" height="120%" filterUnits="userSpaceOnUse" primitiveUnits="userSpaceOnUse"><feComponentTransfer color-interpolation-filters="sRGB"><feFuncR type="discrete" tableValues="0 0"/><feFuncG type="discrete" tableValues="0 0"/><feFuncB type="discrete" tableValues="0 0"/><feFuncA type="linear" slope="0.4" intercept="0"/></feComponentTransfer><feGaussianBlur stdDeviation="3.69414 3.69414"/></filter><clipPath id="clip1"><path d="M946 758 1559 758 1559 893.948 1318.34 893.948C1286.68 893.948 1261.01 919.574 1261.01 951.186L1261.01 1180.13C1261.01 1211.74 1286.68 1237.37 1318.34 1237.37L1559 1237.37 1559 1370 946 1370Z" fill-rule="evenodd" clip-rule="evenodd"/></clipPath><clipPath id="clip2"><rect x="169" y="145" width="1444" height="246"/></clipPath></defs><g transform="translate(-946 -758)"><g clip-path="url(#clip1)"><g><g><path d="M577.575 231.412 544.425 219.3 544.425 149.812 577.575 135.787 353.175 52.9125 80.325 148.537C54.1875 161.287 53.55 196.35 53.55 225.037 53.55 234.6 54.825 244.162 56.7375 253.087 35.0625 267.112 34.425 299.625 34.425 327.037 34.425 349.35 39.525 369.75 53.55 382.5 50.3625 393.337 52.275 406.725 52.275 422.662 52.275 451.35 59.925 477.487 85.425 486.412L262.65 559.725 576.3 429.675 543.15 417.562 543.15 347.437 576.3 333.412 525.3 314.287 525.3 253.087 577.575 231.412ZM87.975 193.162 265.2 262.65 519.562 160.012 519.562 214.837 265.2 320.662 87.975 250.537 87.975 193.162ZM518.287 413.1 263.925 518.287 86.0625 448.162 86.0625 398.437 244.8 463.462 518.925 355.087 518.287 413.1ZM500.437 317.475 246.075 422.662 68.85 352.537 68.85 295.162 251.175 367.837 501.075 263.287 501.075 317.475Z" fill="#FFFFFF" transform="matrix(1.00163 0 0 1 946 758)"/></g></g></g><g clip-path="url(#clip2)" filter="url(#fx0)" transform="translate(1182 828)"><g><path d="M106.916-13.8037C106.916-11.2939 106.811-9.18156 106.602-7.46655 106.393-5.75155 106.079-4.32935 105.661-3.19995 105.243-2.07056 104.72-1.25488 104.093-0.75293 103.465-0.250977 102.733 0 101.896 0L27.4819 0C24.7212 0 22.3997-0.815674 20.5173-2.44702 18.635-4.07837 17.6938-6.73454 17.6938-10.4155L17.6938-157.864C17.6938-158.701 17.9657-159.454 18.5095-160.123 19.0533-160.792 19.9526-161.336 21.2075-161.754 22.4624-162.173 24.1565-162.507 26.2898-162.758 28.4231-163.009 31.0793-163.135 34.2583-163.135 37.521-163.135 40.1981-163.009 42.2895-162.758 44.381-162.507 46.0542-162.173 47.3091-161.754 48.564-161.336 49.4633-160.792 50.0071-160.123 50.5509-159.454 50.8227-158.701 50.8227-157.864L50.8227-27.231 101.896-27.231C102.733-27.231 103.465-27.0009 104.093-26.5408 104.72-26.0806 105.243-25.3277 105.661-24.282 106.079-23.2362 106.393-21.8559 106.602-20.1409 106.811-18.4259 106.916-16.3135 106.916-13.8037ZM155.716-4.2666C155.716-3.43001 155.465-2.698 154.963-2.07056 154.461-1.44311 153.603-0.920247 152.39-0.501953 151.177-0.0836589 149.567 0.230062 147.559 0.439209 145.551 0.648356 143 0.75293 139.904 0.75293 136.809 0.75293 134.257 0.648356 132.249 0.439209 130.242 0.230062 128.631-0.0836589 127.418-0.501953 126.205-0.920247 125.348-1.44311 124.846-2.07056 124.344-2.698 124.093-3.43001 124.093-4.2666L124.093-115.951C124.093-116.788 124.344-117.52 124.846-118.147 125.348-118.775 126.205-119.318 127.418-119.779 128.631-120.239 130.242-120.594 132.249-120.845 134.257-121.096 136.809-121.222 139.904-121.222 143-121.222 145.551-121.096 147.559-120.845 149.567-120.594 151.177-120.239 152.39-119.779 153.603-119.318 154.461-118.775 154.963-118.147 155.465-117.52 155.716-116.788 155.716-115.951ZM158.1-154.1C158.1-147.742 156.803-143.349 154.21-140.923 151.617-138.497 146.806-137.284 139.779-137.284 132.668-137.284 127.878-138.455 125.41-140.798 122.942-143.14 121.708-147.365 121.708-153.472 121.708-159.83 122.984-164.243 125.536-166.711 128.087-169.179 132.919-170.413 140.03-170.413 147.057-170.413 151.826-169.221 154.335-166.837 156.845-164.452 158.1-160.207 158.1-154.1ZM253.371-15.3096C253.371-11.6286 253.141-8.80509 252.681-6.83911 252.221-4.87313 251.615-3.49276 250.862-2.698 250.109-1.90324 249-1.19214 247.536-0.564697 246.072 0.0627441 244.357 0.606527 242.391 1.06665 240.425 1.52677 238.292 1.88232 235.991 2.1333 233.691 2.38428 231.369 2.50977 229.027 2.50977 222.752 2.50977 217.314 1.71501 212.713 0.125488 208.112-1.46403 204.305-3.91105 201.294-7.21558 198.282-10.5201 196.065-14.6821 194.643-19.7017 193.221-24.7212 192.51-30.661 192.51-37.521L192.51-94.8691 179.082-94.8691C177.493-94.8691 176.28-95.8521 175.443-97.8181 174.607-99.7841 174.188-103.068 174.188-107.669 174.188-110.095 174.293-112.145 174.502-113.818 174.711-115.491 175.025-116.809 175.443-117.771 175.861-118.733 176.384-119.423 177.012-119.841 177.639-120.26 178.371-120.469 179.208-120.469L192.51-120.469 192.51-145.441C192.51-146.277 192.74-147.03 193.2-147.7 193.66-148.369 194.496-148.934 195.71-149.394 196.923-149.854 198.554-150.189 200.604-150.398 202.653-150.607 205.184-150.711 208.196-150.711 211.291-150.711 213.864-150.607 215.913-150.398 217.963-150.189 219.573-149.854 220.744-149.394 221.916-148.934 222.752-148.369 223.254-147.7 223.756-147.03 224.007-146.277 224.007-145.441L224.007-120.469 248.352-120.469C249.188-120.469 249.92-120.26 250.548-119.841 251.175-119.423 251.698-118.733 252.117-117.771 252.535-116.809 252.849-115.491 253.058-113.818 253.267-112.145 253.371-110.095 253.371-107.669 253.371-103.068 252.953-99.7841 252.117-97.8181 251.28-95.8521 250.067-94.8691 248.477-94.8691L224.007-94.8691 224.007-42.2895C224.007-36.1824 224.969-31.6021 226.893-28.5486 228.818-25.495 232.248-23.9683 237.183-23.9683 238.857-23.9683 240.362-24.1147 241.701-24.4075 243.04-24.7003 244.232-25.0349 245.277-25.4114 246.323-25.7878 247.202-26.1225 247.913-26.4153 248.624-26.7081 249.272-26.8545 249.858-26.8545 250.36-26.8545 250.841-26.7081 251.301-26.4153 251.761-26.1225 252.117-25.5369 252.367-24.6584 252.618-23.78 252.849-22.5879 253.058-21.082 253.267-19.5762 253.371-17.652 253.371-15.3096ZM376.178-63.4971C376.178-59.6488 375.321-56.8044 373.606-54.9639 371.891-53.1234 369.528-52.2031 366.516-52.2031L298.376-52.2031C298.376-47.4346 298.94-43.1052 300.07-39.2151 301.199-35.3249 302.998-32.0204 305.466-29.3015 307.934-26.5826 311.113-24.512 315.003-23.0898 318.893-21.6676 323.557-20.9565 328.995-20.9565 334.516-20.9565 339.369-21.3539 343.551-22.1487 347.734-22.9434 351.353-23.8219 354.406-24.7839 357.46-25.746 359.99-26.6244 361.998-27.4192 364.006-28.2139 365.637-28.6113 366.892-28.6113 367.645-28.6113 368.273-28.4649 368.775-28.1721 369.277-27.8793 369.695-27.3564 370.029-26.6035 370.364-25.8506 370.594-24.7839 370.72-23.4036 370.845-22.0232 370.908-20.2873 370.908-18.1958 370.908-16.3553 370.866-14.7867 370.782-13.49 370.699-12.1933 370.573-11.0848 370.406-10.1645 370.239-9.2443 369.988-8.47046 369.653-7.84302 369.318-7.21557 368.879-6.60905 368.335-6.02344 367.792-5.43782 366.307-4.64307 363.881-3.63916 361.454-2.63525 358.359-1.65226 354.594-0.690185 350.83 0.271891 346.521 1.10848 341.669 1.81958 336.817 2.53068 331.63 2.88623 326.109 2.88623 316.153 2.88623 307.432 1.63135 299.944-0.878418 292.457-3.38818 286.203-7.19466 281.184-12.2978 276.164-17.401 272.421-23.8428 269.953-31.623 267.485-39.4033 266.251-48.5221 266.251-58.9795 266.251-68.9349 267.547-77.9073 270.141-85.8967 272.734-93.8861 276.499-100.662 281.435-106.226 286.371-111.789 292.373-116.035 299.442-118.963 306.512-121.891 314.48-123.355 323.348-123.355 332.718-123.355 340.728-121.975 347.379-119.214 354.03-116.453 359.488-112.626 363.755-107.732 368.022-102.838 371.159-97.0443 373.167-90.3516 375.174-83.6588 376.178-76.3805 376.178-68.5166ZM345.559-72.5322C345.81-81.4001 344.033-88.3647 340.226-93.426 336.42-98.4874 330.543-101.018 322.595-101.018 318.579-101.018 315.087-100.265 312.117-98.7593 309.147-97.2534 306.679-95.2247 304.713-92.6731 302.747-90.1215 301.241-87.1098 300.195-83.6379 299.15-80.1661 298.543-76.4642 298.376-72.5322ZM474.16-105.787C474.16-102.775 474.076-100.307 473.909-98.3828 473.742-96.4586 473.491-94.9528 473.156-93.8652 472.821-92.7777 472.382-92.0247 471.839-91.6064 471.295-91.1881 470.605-90.979 469.768-90.979 469.099-90.979 468.346-91.1254 467.509-91.4182 466.673-91.711 465.731-92.0247 464.686-92.3594 463.64-92.694 462.49-93.0077 461.235-93.3005 459.98-93.5933 458.599-93.7397 457.094-93.7397 455.337-93.7397 453.58-93.3842 451.823-92.6731 450.066-91.962 448.247-90.8535 446.364-89.3476 444.482-87.8418 442.516-85.834 440.466-83.3242 438.417-80.8144 436.221-77.7191 433.878-74.0381L433.878-4.2666C433.878-3.43001 433.627-2.698 433.125-2.07056 432.623-1.44311 431.766-0.920247 430.553-0.501953 429.34-0.0836589 427.729 0.230062 425.722 0.439209 423.714 0.648356 421.162 0.75293 418.067 0.75293 414.971 0.75293 412.42 0.648356 410.412 0.439209 408.404 0.230062 406.794-0.0836589 405.581-0.501953 404.368-0.920247 403.51-1.44311 403.008-2.07056 402.506-2.698 402.255-3.43001 402.255-4.2666L402.255-116.202C402.255-117.039 402.464-117.771 402.883-118.398 403.301-119.026 404.054-119.548 405.141-119.967 406.229-120.385 407.63-120.699 409.345-120.908 411.06-121.117 413.215-121.222 415.808-121.222 418.485-121.222 420.702-121.117 422.459-120.908 424.216-120.699 425.575-120.385 426.537-119.967 427.499-119.548 428.189-119.026 428.608-118.398 429.026-117.771 429.235-117.039 429.235-116.202L429.235-102.273C432.163-106.456 434.924-109.907 437.517-112.626 440.111-115.345 442.579-117.499 444.921-119.088 447.264-120.678 449.606-121.786 451.949-122.414 454.291-123.041 456.633-123.355 458.976-123.355 460.063-123.355 461.235-123.292 462.49-123.167 463.744-123.041 465.041-122.832 466.38-122.539 467.718-122.246 468.89-121.912 469.893-121.535 470.897-121.159 471.629-120.762 472.089-120.343 472.55-119.925 472.884-119.465 473.093-118.963 473.302-118.461 473.491-117.771 473.658-116.892 473.825-116.014 473.951-114.696 474.035-112.939 474.118-111.183 474.16-108.798 474.16-105.787ZM583.083-3.89014C583.083-2.71891 582.664-1.79867 581.828-1.12939 580.991-0.460124 579.673 0.0209147 577.875 0.313721 576.076 0.606527 573.42 0.75293 569.906 0.75293 566.142 0.75293 563.402 0.606527 561.687 0.313721 559.972 0.0209147 558.759-0.460124 558.048-1.12939 557.337-1.79867 556.981-2.71891 556.981-3.89014L556.981-12.7998C552.38-7.86393 547.13-4.01562 541.232-1.25488 535.334 1.50586 528.788 2.88623 521.593 2.88623 515.654 2.88623 510.195 2.11239 505.217 0.564697 500.239-0.982991 495.931-3.28361 492.292-6.33716 488.653-9.39071 485.829-13.1763 483.821-17.6938 481.814-22.2114 480.81-27.4819 480.81-33.5054 480.81-40.0308 482.085-45.6986 484.637-50.509 487.189-55.3194 490.995-59.2932 496.056-62.4304 501.118-65.5676 507.413-67.8892 514.942-69.395 522.472-70.9009 531.214-71.6538 541.169-71.6538L552.087-71.6538 552.087-78.4302C552.087-81.9438 551.731-85.0183 551.02-87.6536 550.309-90.2888 549.138-92.4848 547.507-94.2417 545.875-95.9985 543.7-97.2952 540.981-98.1318 538.262-98.9684 534.895-99.3867 530.879-99.3867 525.609-99.3867 520.903-98.8011 516.762-97.6299 512.621-96.4586 508.961-95.1619 505.782-93.7397 502.603-92.3175 499.947-91.0208 497.813-89.8496 495.68-88.6784 493.944-88.0928 492.606-88.0928 491.685-88.0928 490.87-88.3856 490.159-88.9712 489.447-89.5568 488.862-90.3934 488.402-91.4809 487.942-92.5685 487.586-93.9071 487.335-95.4966 487.084-97.0861 486.959-98.8429 486.959-100.767 486.959-103.36 487.168-105.41 487.586-106.916 488.004-108.422 488.799-109.781 489.97-110.994 491.141-112.207 493.191-113.546 496.119-115.01 499.047-116.474 502.477-117.833 506.409-119.088 510.341-120.343 514.629-121.368 519.272-122.163 523.915-122.958 528.704-123.355 533.64-123.355 542.424-123.355 549.933-122.497 556.165-120.782 562.398-119.067 567.522-116.432 571.538-112.877 575.553-109.321 578.481-104.741 580.322-99.1357 582.162-93.5306 583.083-86.8797 583.083-79.1831ZM552.087-51.8267 540.04-51.8267C534.937-51.8266 530.587-51.4502 526.989-50.6973 523.392-49.9443 520.464-48.8149 518.205-47.3091 515.946-45.8032 514.294-43.9836 513.248-41.8503 512.203-39.717 511.68-37.27 511.68-34.5093 511.68-29.8244 513.165-26.1434 516.135-23.4663 519.104-20.7892 523.225-19.4507 528.495-19.4507 532.929-19.4507 537.007-20.5801 540.73-22.8389 544.453-25.0977 548.239-28.4022 552.087-32.7524ZM686.231-105.787C686.231-102.775 686.147-100.307 685.98-98.3828 685.812-96.4586 685.562-94.9528 685.227-93.8652 684.892-92.7777 684.453-92.0247 683.909-91.6064 683.365-91.1881 682.675-90.979 681.839-90.979 681.169-90.979 680.417-91.1254 679.58-91.4182 678.743-91.711 677.802-92.0247 676.756-92.3594 675.711-92.694 674.56-93.0077 673.306-93.3005 672.051-93.5933 670.67-93.7397 669.164-93.7397 667.408-93.7397 665.651-93.3842 663.894-92.6731 662.137-91.962 660.318-90.8535 658.435-89.3476 656.553-87.8418 654.587-85.834 652.537-83.3242 650.488-80.8144 648.292-77.7191 645.949-74.0381L645.949-4.2666C645.949-3.43001 645.698-2.698 645.196-2.07056 644.694-1.44311 643.837-0.920247 642.624-0.501953 641.411-0.0836589 639.8 0.230062 637.792 0.439209 635.785 0.648356 633.233 0.75293 630.138 0.75293 627.042 0.75293 624.491 0.648356 622.483 0.439209 620.475 0.230062 618.865-0.0836589 617.651-0.501953 616.438-0.920247 615.581-1.44311 615.079-2.07056 614.577-2.698 614.326-3.43001 614.326-4.2666L614.326-116.202C614.326-117.039 614.535-117.771 614.953-118.398 615.372-119.026 616.125-119.548 617.212-119.967 618.3-120.385 619.701-120.699 621.416-120.908 623.131-121.117 625.285-121.222 627.879-121.222 630.556-121.222 632.773-121.117 634.53-120.908 636.286-120.699 637.646-120.385 638.608-119.967 639.57-119.548 640.26-119.026 640.679-118.398 641.097-117.771 641.306-117.039 641.306-116.202L641.306-102.273C644.234-106.456 646.995-109.907 649.588-112.626 652.182-115.345 654.65-117.499 656.992-119.088 659.334-120.678 661.677-121.786 664.019-122.414 666.362-123.041 668.704-123.355 671.047-123.355 672.134-123.355 673.306-123.292 674.56-123.167 675.815-123.041 677.112-122.832 678.451-122.539 679.789-122.246 680.96-121.912 681.964-121.535 682.968-121.159 683.7-120.762 684.16-120.343 684.62-119.925 684.955-119.465 685.164-118.963 685.373-118.461 685.562-117.771 685.729-116.892 685.896-116.014 686.022-114.696 686.105-112.939 686.189-111.183 686.231-108.798 686.231-105.787ZM771.42 0 757.867 39.6543C757.115 41.7458 755.065 43.2516 751.719 44.1719 748.372 45.0921 743.478 45.5522 737.036 45.5522 733.69 45.5522 731.013 45.4058 729.005 45.113 726.997 44.8202 725.491 44.3392 724.488 43.6699 723.484 43.0006 722.94 42.1641 722.856 41.1602 722.773 40.1562 723.023 38.9432 723.609 37.521L738.542 0C737.455-0.501953 736.472-1.2758 735.593-2.32153 734.715-3.36727 734.066-4.47575 733.648-5.64697L695.123-108.547C694.036-111.475 693.492-113.713 693.492-115.261 693.492-116.809 693.994-118.022 694.998-118.9 696.002-119.779 697.696-120.385 700.08-120.72 702.464-121.054 705.622-121.222 709.554-121.222 713.152-121.222 715.996-121.159 718.088-121.033 720.179-120.908 721.81-120.594 722.982-120.092 724.153-119.59 725.031-118.816 725.617-117.771 726.203-116.725 726.788-115.24 727.374-113.316L753.726-38.3994 754.103-38.3994 778.197-114.822C778.698-116.997 779.347-118.44 780.142-119.151 780.936-119.862 782.254-120.385 784.094-120.72 785.935-121.054 789.156-121.222 793.757-121.222 797.354-121.222 800.345-121.054 802.729-120.72 805.114-120.385 806.871-119.758 808-118.837 809.129-117.917 809.694-116.683 809.694-115.135 809.694-113.588 809.359-111.768 808.69-109.677ZM1033.82-83.0732C1033.82-69.6042 1032.14-57.5573 1028.8-46.9326 1025.45-36.3079 1020.47-27.2937 1013.86-19.8899 1007.25-12.4861 999.077-6.83911 989.331-2.94897 979.584 0.941162 968.311 2.88623 955.512 2.88623 942.879 2.88623 931.857 1.23397 922.445-2.07056 913.034-5.37508 905.191-10.4155 898.916-17.1919 892.642-23.9683 887.936-32.5851 884.799-43.0425 881.662-53.4998 880.093-65.8813 880.093-80.187 880.093-93.3214 881.766-105.138 885.113-115.637 888.459-126.137 893.437-135.067 900.046-142.429 906.655-149.791 914.832-155.438 924.579-159.37 934.325-163.302 945.64-165.268 958.523-165.268 970.821-165.268 981.676-163.637 991.088-160.374 1000.5-157.111 1008.36-152.092 1014.68-145.315 1021-138.539 1025.76-129.985 1028.98-119.653 1032.21-109.321 1033.82-97.1279 1033.82-83.0732ZM999.182-81.3164C999.182-89.8496 998.512-97.609 997.174-104.594 995.835-111.58 993.555-117.562 990.335-122.539 987.114-127.517 982.826-131.365 977.472-134.084 972.118-136.803 965.425-138.163 957.394-138.163 949.279-138.163 942.503-136.636 937.065-133.582 931.627-130.529 927.235-126.45 923.889-121.347 920.542-116.244 918.179-110.283 916.798-103.465 915.418-96.6469 914.728-89.4313 914.728-81.8184 914.728-72.9505 915.397-64.982 916.736-57.9128 918.074-50.8437 920.333-44.7993 923.512-39.7798 926.691-34.7603 930.958-30.9329 936.312-28.2976 941.666-25.6623 948.401-24.3447 956.516-24.3447 964.63-24.3447 971.407-25.8506 976.845-28.8623 982.282-31.874 986.674-35.9733 990.021-41.1602 993.367-46.347 995.731-52.3913 997.111-59.2932 998.491-66.1951 999.182-73.5361 999.182-81.3164ZM1154.83-3.89014C1154.83-2.71891 1154.41-1.79867 1153.58-1.12939 1152.74-0.460124 1151.42 0.0209147 1149.62 0.313721 1147.82 0.606527 1145.17 0.75293 1141.65 0.75293 1137.89 0.75293 1135.15 0.606527 1133.43 0.313721 1131.72 0.0209147 1130.51-0.460124 1129.8-1.12939 1129.08-1.79867 1128.73-2.71891 1128.73-3.89014L1128.73-12.7998C1124.13-7.86393 1118.88-4.01562 1112.98-1.25488 1107.08 1.50586 1100.54 2.88623 1093.34 2.88623 1087.4 2.88623 1081.94 2.11239 1076.96 0.564697 1071.99-0.982991 1067.68-3.28361 1064.04-6.33716 1060.4-9.39071 1057.58-13.1763 1055.57-17.6938 1053.56-22.2114 1052.56-27.4819 1052.56-33.5054 1052.56-40.0308 1053.83-45.6986 1056.38-50.509 1058.94-55.3194 1062.74-59.2932 1067.8-62.4304 1072.87-65.5676 1079.16-67.8892 1086.69-69.395 1094.22-70.9009 1102.96-71.6538 1112.92-71.6538L1123.83-71.6538 1123.83-78.4302C1123.83-81.9438 1123.48-85.0183 1122.77-87.6536 1122.06-90.2888 1120.89-92.4848 1119.25-94.2417 1117.62-95.9985 1115.45-97.2952 1112.73-98.1318 1110.01-98.9684 1106.64-99.3867 1102.63-99.3867 1097.36-99.3867 1092.65-98.8011 1088.51-97.6299 1084.37-96.4586 1080.71-95.1619 1077.53-93.7397 1074.35-92.3175 1071.69-91.0208 1069.56-89.8496 1067.43-88.6784 1065.69-88.0928 1064.35-88.0928 1063.43-88.0928 1062.62-88.3856 1061.91-88.9712 1061.2-89.5568 1060.61-90.3934 1060.15-91.4809 1059.69-92.5685 1059.33-93.9071 1059.08-95.4966 1058.83-97.0861 1058.71-98.8429 1058.71-100.767 1058.71-103.36 1058.92-105.41 1059.33-106.916 1059.75-108.422 1060.55-109.781 1061.72-110.994 1062.89-112.207 1064.94-113.546 1067.87-115.01 1070.8-116.474 1074.23-117.833 1078.16-119.088 1082.09-120.343 1086.38-121.368 1091.02-122.163 1095.66-122.958 1100.45-123.355 1105.39-123.355 1114.17-123.355 1121.68-122.497 1127.91-120.782 1134.15-119.067 1139.27-116.432 1143.29-112.877 1147.3-109.321 1150.23-104.741 1152.07-99.1357 1153.91-93.5306 1154.83-86.8797 1154.83-79.1831ZM1123.83-51.8267 1111.79-51.8267C1106.68-51.8266 1102.33-51.4502 1098.74-50.6973 1095.14-49.9443 1092.21-48.8149 1089.95-47.3091 1087.69-45.8032 1086.04-43.9836 1085-41.8503 1083.95-39.717 1083.43-37.27 1083.43-34.5093 1083.43-29.8244 1084.91-26.1434 1087.88-23.4663 1090.85-20.7892 1094.97-19.4507 1100.24-19.4507 1104.68-19.4507 1108.76-20.5801 1112.48-22.8389 1116.2-25.0977 1119.99-28.4022 1123.83-32.7524ZM1264.88-35.8896C1264.88-29.5316 1263.69-23.9264 1261.3-19.0742 1258.92-14.222 1255.55-10.1645 1251.2-6.90185 1246.85-3.63916 1241.71-1.19214 1235.77 0.439209 1229.83 2.07056 1223.39 2.88623 1216.44 2.88623 1212.26 2.88623 1208.26 2.57251 1204.46 1.94507 1200.65 1.31763 1197.24 0.522868 1194.23-0.439209 1191.22-1.40129 1188.71-2.38428 1186.7-3.38818 1184.69-4.39209 1183.23-5.33325 1182.31-6.21167 1181.39-7.09009 1180.68-8.47046 1180.18-10.3528 1179.67-12.2351 1179.42-15.0168 1179.42-18.6978 1179.42-21.1239 1179.51-23.0689 1179.67-24.533 1179.84-25.997 1180.09-27.1682 1180.43-28.0466 1180.76-28.925 1181.18-29.5107 1181.68-29.8035 1182.18-30.0963 1182.81-30.2427 1183.56-30.2427 1184.48-30.2427 1185.84-29.7198 1187.64-28.6741 1189.44-27.6283 1191.68-26.478 1194.36-25.2231 1197.03-23.9683 1200.15-22.797 1203.71-21.7095 1207.26-20.6219 1211.3-20.0781 1215.81-20.0781 1218.66-20.0781 1221.19-20.3709 1223.41-20.9565 1225.62-21.5422 1227.55-22.3787 1229.18-23.4663 1230.81-24.5539 1232.04-25.9342 1232.88-27.6074 1233.72-29.2806 1234.14-31.2047 1234.14-33.3799 1234.14-35.8896 1233.36-38.0439 1231.81-39.8425 1230.27-41.6412 1228.22-43.2098 1225.67-44.5483 1223.11-45.8869 1220.23-47.1418 1217.01-48.313 1213.79-49.4842 1210.48-50.7809 1207.09-52.2031 1203.71-53.6253 1200.4-55.2567 1197.18-57.0972 1193.96-58.9377 1191.07-61.1964 1188.52-63.8735 1185.97-66.5506 1183.92-69.7715 1182.37-73.5361 1180.82-77.3008 1180.05-81.8184 1180.05-87.0889 1180.05-92.443 1181.1-97.358 1183.19-101.834 1185.28-106.309 1188.29-110.137 1192.22-113.316 1196.15-116.495 1200.94-118.963 1206.59-120.72 1212.24-122.477 1218.58-123.355 1225.6-123.355 1229.12-123.355 1232.53-123.104 1235.83-122.602 1239.13-122.1 1242.13-121.473 1244.8-120.72 1247.48-119.967 1249.74-119.151 1251.58-118.273 1253.42-117.394 1254.74-116.641 1255.53-116.014 1256.33-115.386 1256.89-114.759 1257.23-114.132 1257.56-113.504 1257.81-112.751 1257.98-111.873 1258.15-110.994 1258.29-109.907 1258.42-108.61 1258.54-107.313 1258.61-105.703 1258.61-103.779 1258.61-101.52 1258.54-99.6795 1258.42-98.2573 1258.29-96.8351 1258.08-95.7057 1257.79-94.8691 1257.5-94.0325 1257.1-93.4678 1256.6-93.175 1256.1-92.8822 1255.51-92.7358 1254.84-92.7358 1254.09-92.7358 1252.92-93.175 1251.33-94.0535 1249.74-94.9319 1247.75-95.873 1245.37-96.8769 1242.98-97.8808 1240.22-98.822 1237.08-99.7004 1233.95-100.579 1230.37-101.018 1226.36-101.018 1223.51-101.018 1221.04-100.725 1218.95-100.14 1216.86-99.554 1215.15-98.7174 1213.81-97.6299 1212.47-96.5423 1211.46-95.2665 1210.8-93.8025 1210.13-92.3384 1209.79-90.7698 1209.79-89.0967 1209.79-86.5032 1210.59-84.3281 1212.18-82.5713 1213.77-80.8144 1215.86-79.2668 1218.45-77.9282 1221.04-76.5897 1223.99-75.3348 1227.3-74.1636 1230.6-72.9923 1233.95-71.7165 1237.34-70.3362 1240.72-68.9558 1244.07-67.3454 1247.38-65.5049 1250.68-63.6644 1253.63-61.4056 1256.22-58.7285 1258.82-56.0514 1260.91-52.8515 1262.5-49.1287 1264.09-45.4058 1264.88-40.9928 1264.88-35.8896ZM1320.25-4.2666C1320.25-3.43001 1320-2.698 1319.5-2.07056 1318.99-1.44311 1318.14-0.920247 1316.92-0.501953 1315.71-0.0836589 1314.1 0.230062 1312.09 0.439209 1310.08 0.648356 1307.53 0.75293 1304.44 0.75293 1301.34 0.75293 1298.79 0.648356 1296.78 0.439209 1294.78 0.230062 1293.16-0.0836589 1291.95-0.501953 1290.74-0.920247 1289.88-1.44311 1289.38-2.07056 1288.88-2.698 1288.63-3.43001 1288.63-4.2666L1288.63-115.951C1288.63-116.788 1288.88-117.52 1289.38-118.147 1289.88-118.775 1290.74-119.318 1291.95-119.779 1293.16-120.239 1294.78-120.594 1296.78-120.845 1298.79-121.096 1301.34-121.222 1304.44-121.222 1307.53-121.222 1310.08-121.096 1312.09-120.845 1314.1-120.594 1315.71-120.239 1316.92-119.779 1318.14-119.318 1318.99-118.775 1319.5-118.147 1320-117.52 1320.25-116.788 1320.25-115.951ZM1322.63-154.1C1322.63-147.742 1321.34-143.349 1318.74-140.923 1316.15-138.497 1311.34-137.284 1304.31-137.284 1297.2-137.284 1292.41-138.455 1289.94-140.798 1287.48-143.14 1286.24-147.365 1286.24-153.472 1286.24-159.83 1287.52-164.243 1290.07-166.711 1292.62-169.179 1297.45-170.413 1304.56-170.413 1311.59-170.413 1316.36-169.221 1318.87-166.837 1321.38-164.452 1322.63-160.207 1322.63-154.1ZM1430.45-35.8896C1430.45-29.5316 1429.26-23.9264 1426.88-19.0742 1424.49-14.222 1421.13-10.1645 1416.78-6.90185 1412.43-3.63916 1407.28-1.19214 1401.34 0.439209 1395.4 2.07056 1388.96 2.88623 1382.02 2.88623 1377.83 2.88623 1373.84 2.57251 1370.03 1.94507 1366.22 1.31763 1362.82 0.522868 1359.8-0.439209 1356.79-1.40129 1354.28-2.38428 1352.27-3.38818 1350.27-4.39209 1348.8-5.33325 1347.88-6.21167 1346.96-7.09009 1346.25-8.47046 1345.75-10.3528 1345.25-12.2351 1345-15.0168 1345-18.6978 1345-21.1239 1345.08-23.0689 1345.25-24.533 1345.41-25.997 1345.67-27.1682 1346-28.0466 1346.33-28.925 1346.75-29.5107 1347.25-29.8035 1347.76-30.0963 1348.38-30.2427 1349.14-30.2427 1350.06-30.2427 1351.42-29.7198 1353.22-28.6741 1355.01-27.6283 1357.25-26.478 1359.93-25.2231 1362.61-23.9683 1365.72-22.797 1369.28-21.7095 1372.83-20.6219 1376.87-20.0781 1381.39-20.0781 1384.23-20.0781 1386.76-20.3709 1388.98-20.9565 1391.2-21.5422 1393.12-22.3787 1394.75-23.4663 1396.38-24.5539 1397.62-25.9342 1398.45-27.6074 1399.29-29.2806 1399.71-31.2047 1399.71-33.3799 1399.71-35.8896 1398.94-38.0439 1397.39-39.8425 1395.84-41.6412 1393.79-43.2098 1391.24-44.5483 1388.69-45.8869 1385.8-47.1418 1382.58-48.313 1379.36-49.4842 1376.05-50.7809 1372.67-52.2031 1369.28-53.6253 1365.97-55.2567 1362.75-57.0972 1359.53-58.9377 1356.65-61.1964 1354.09-63.8735 1351.54-66.5506 1349.49-69.7715 1347.95-73.5361 1346.4-77.3008 1345.62-81.8184 1345.62-87.0889 1345.62-92.443 1346.67-97.358 1348.76-101.834 1350.85-106.309 1353.86-110.137 1357.8-113.316 1361.73-116.495 1366.52-118.963 1372.16-120.72 1377.81-122.477 1384.15-123.355 1391.18-123.355 1394.69-123.355 1398.1-123.104 1401.4-122.602 1404.71-122.1 1407.7-121.473 1410.38-120.72 1413.05-119.967 1415.31-119.151 1417.15-118.273 1418.99-117.394 1420.31-116.641 1421.1-116.014 1421.9-115.386 1422.46-114.759 1422.8-114.132 1423.13-113.504 1423.38-112.751 1423.55-111.873 1423.72-110.994 1423.87-109.907 1423.99-108.61 1424.12-107.313 1424.18-105.703 1424.18-103.779 1424.18-101.52 1424.12-99.6795 1423.99-98.2573 1423.87-96.8351 1423.66-95.7057 1423.36-94.8691 1423.07-94.0325 1422.67-93.4678 1422.17-93.175 1421.67-92.8822 1421.08-92.7358 1420.41-92.7358 1419.66-92.7358 1418.49-93.175 1416.9-94.0535 1415.31-94.9319 1413.32-95.873 1410.94-96.8769 1408.56-97.8808 1405.8-98.822 1402.66-99.7004 1399.52-100.579 1395.94-101.018 1391.93-101.018 1389.08-101.018 1386.62-100.725 1384.52-100.14 1382.43-99.554 1380.72-98.7174 1379.38-97.6299 1378.04-96.5423 1377.04-95.2665 1376.37-93.8025 1375.7-92.3384 1375.36-90.7698 1375.36-89.0967 1375.36-86.5032 1376.16-84.3281 1377.75-82.5713 1379.34-80.8144 1381.43-79.2668 1384.02-77.9282 1386.62-76.5897 1389.57-75.3348 1392.87-74.1636 1396.17-72.9923 1399.52-71.7165 1402.91-70.3362 1406.3-68.9558 1409.64-67.3454 1412.95-65.5049 1416.25-63.6644 1419.2-61.4056 1421.79-58.7285 1424.39-56.0514 1426.48-52.8515 1428.07-49.1287 1429.66-45.4058 1430.45-40.9928 1430.45-35.8896Z" fill="#FFFFFF" transform="matrix(1 0 0 1 166.833 330)"/></g></g><text fill="#FFFFFF" font-family="Calibri,Calibri_MSFontService,sans-serif" font-weight="700" font-size="257" transform="matrix(1 0 0 1 1344.89 1154)">Literary Oasis</text></g></svg>