<svg width="3758" height="1236" xmlns="http://www.w3.org/2000/svg" xmlns:xlink="http://www.w3.org/1999/xlink" xml:space="preserve" overflow="hidden"><g transform="translate(-557 -545)"><g><g><g><path d="M1424.31 991.497 1374.53 973.308 1374.53 868.963 1424.31 847.903 1087.34 723.455 677.619 867.049C638.37 886.195 637.412 938.846 637.412 981.924 637.412 996.283 639.327 1010.64 642.199 1024.04 609.651 1045.11 608.694 1093.93 608.694 1135.09 608.694 1168.6 616.352 1199.23 637.412 1218.38 632.626 1234.65 635.498 1254.75 635.498 1278.68 635.498 1321.76 646.985 1361.01 685.277 1374.41L951.404 1484.5 1422.39 1289.21 1372.61 1271.03 1372.61 1165.72 1422.39 1144.66 1345.81 1115.94 1345.81 1024.04 1424.31 991.497ZM689.106 934.059 955.233 1038.4 1337.19 884.28 1337.19 966.607 955.233 1125.52 689.106 1020.22 689.106 934.059ZM1335.28 1264.32 953.319 1422.28 686.234 1316.98 686.234 1242.31 924.6 1339.95 1336.24 1177.21 1335.28 1264.32ZM1308.47 1120.73 926.515 1278.68 660.387 1173.38 660.387 1087.23 934.173 1196.36 1309.43 1039.36 1309.43 1120.73Z" fill="#FFFFFF"/></g></g></g><text fill="#FFFFFF" font-family="Algerian,Algerian_MSFontService,sans-serif" font-weight="400" font-stretch="extra-condensed" font-size="403" transform="matrix(1 0 0 1 1509.13 1054)">Literary</text><text fill="#FFFFFF" font-family="Algerian,Algerian_MSFontService,sans-serif" font-weight="400" font-stretch="extra-condensed" font-size="403" transform="matrix(1 0 0 1 1509.13 1442)">Oasis</text></g></svg>