<svg width="3023" height="919" xmlns="http://www.w3.org/2000/svg" xmlns:xlink="http://www.w3.org/1999/xlink" xml:space="preserve" overflow="hidden"><g transform="translate(-557 -644)"><g><g><g><path d="M1424.31 991.497 1374.53 973.308 1374.53 868.963 1424.31 847.903 1087.34 723.455 677.619 867.049C638.37 886.195 637.412 938.846 637.412 981.924 637.412 996.283 639.327 1010.64 642.199 1024.04 609.651 1045.11 608.694 1093.93 608.694 1135.09 608.694 1168.6 616.352 1199.23 637.412 1218.38 632.626 1234.65 635.498 1254.75 635.498 1278.68 635.498 1321.76 646.985 1361.01 685.277 1374.41L951.404 1484.5 1422.39 1289.21 1372.61 1271.03 1372.61 1165.72 1422.39 1144.66 1345.81 1115.94 1345.81 1024.04 1424.31 991.497ZM689.106 934.059 955.233 1038.4 1337.19 884.28 1337.19 966.607 955.233 1125.52 689.106 1020.22 689.106 934.059ZM1335.28 1264.32 953.319 1422.28 686.234 1316.98 686.234 1242.31 924.6 1339.95 1336.24 1177.21 1335.28 1264.32ZM1308.47 1120.73 926.515 1278.68 660.387 1173.38 660.387 1087.23 934.173 1196.36 1309.43 1039.36 1309.43 1120.73Z" stroke="#000000" stroke-width="20.6517" fill="#FFFFFF"/></g></g></g><path d="M2361.43 979.964 2367.72 982.325C2374.94 999.117 2387.14 1015.91 2404.32 1032.7L2407.47 1035.85 2397.24 1053.56 2182.36 1053.56 2179.21 1048.25 2394.68 1048.25 2401.37 1035.85C2382.48 1018.4 2369.17 999.773 2361.43 979.964ZM2902.47 878.033 2908.57 881.772C2911.45 893.578 2918.67 909.78 2930.21 930.376 2927.33 929.982 2925.69 929.785 2925.29 929.785L2909.35 928.408C2902.14 927.752 2896.89 927.424 2893.61 927.424 2893.09 927.424 2891.78 927.49 2889.68 927.621L2922.54 1014.79 2966.42 1053.56 2852.49 1053.56 2848.75 1048.25 2953.24 1048.25 2917.82 1016.96 2882.79 924.276C2887.25 923.095 2892.37 922.505 2898.14 922.505 2905.22 922.505 2913.09 923.095 2921.75 924.276L2919.39 919.947C2910.99 904.467 2905.35 890.496 2902.47 878.033ZM2321.09 861.7 2326.01 864.259 2326.01 951.234 2321.09 948.676ZM2801.72 848.123 2780.07 905.188C2781.25 906.5 2781.91 907.287 2782.04 907.55L2790.11 916.601C2794.44 921.324 2799.95 928.67 2806.64 938.64L2808.6 941.592C2814.25 934.508 2820.94 927.49 2828.68 920.537ZM2792.86 825.297 2761.58 907.943C2771.55 918.176 2780.14 928.277 2787.35 938.247L2796.4 950.841C2796.54 950.972 2797.19 951.824 2798.37 953.399 2799.55 952.218 2800.21 951.497 2800.34 951.234L2803.1 947.889C2803.49 947.364 2804.21 946.511 2805.26 945.331 2796.08 931.163 2785.39 918.372 2773.19 906.959L2798.37 840.448ZM2068.01 812.9C2080.74 812.9 2089.76 813.916 2095.07 815.95 2100.38 817.983 2104.48 822.017 2107.37 828.052 2097.27 821.492 2085.46 818.213 2071.95 818.213 2068.93 818.213 2065.78 818.409 2062.5 818.803L2063.29 1016.56 2094.58 1053.56 1994.03 1053.56 1989.5 1048.25 2083.76 1048.25 2057.39 1018.14 2057.39 813.096ZM3174.61 806.8C3187.86 818.869 3194.48 834.217 3194.48 852.845 3194.48 883.018 3175.26 905.91 3136.82 921.521 3145.09 948.545 3159.72 974.979 3180.71 1000.82 3193.82 1016.96 3210.42 1031.45 3230.49 1044.31 3200.45 1052.31 3172.24 1064.51 3145.88 1080.91L3144.11 1082.09 3140.17 1078.94C3165.23 1062.54 3191.92 1050.48 3220.26 1042.74 3182.48 1017.55 3152.76 977.274 3131.12 921.914L3129.94 918.569C3170.08 903.352 3190.15 880.132 3190.15 848.91 3190.15 836.054 3184.97 822.017 3174.61 806.8ZM2613.61 806.8C2626.86 818.869 2633.48 834.217 2633.48 852.845 2633.48 883.018 2614.26 905.91 2575.82 921.521 2584.09 948.545 2598.72 974.979 2619.71 1000.82 2632.82 1016.96 2649.42 1031.45 2669.49 1044.31 2639.45 1052.31 2611.24 1064.51 2584.88 1080.91L2583.11 1082.09 2579.17 1078.94C2604.23 1062.54 2630.92 1050.48 2659.26 1042.74 2621.48 1017.55 2591.76 977.274 2570.12 921.914L2568.94 918.569C2609.08 903.352 2629.15 880.132 2629.15 848.91 2629.15 836.054 2623.97 822.017 2613.61 806.8ZM3076.61 795.78C3062.84 795.78 3051.23 798.338 3041.78 803.454L3041.78 909.517C3045.59 909.517 3049.19 909.189 3052.6 908.533L3052.6 811.719C3059.82 809.751 3068.48 808.767 3078.58 808.767 3104.16 808.767 3121.54 817.163 3130.72 833.955 3121.02 826.084 3112.49 820.672 3105.14 817.721 3097.8 814.769 3089.01 813.293 3078.78 813.293 3070.77 813.293 3063.75 814.08 3057.72 815.655L3057.72 908.533 3059.88 908.14C3085.73 903.417 3104.91 895.973 3117.44 885.806 3129.97 875.639 3136.23 862.422 3136.23 846.155 3136.23 831.594 3130.59 819.557 3119.31 810.046 3108.03 800.536 3093.8 795.78 3076.61 795.78ZM2515.61 795.78C2501.84 795.78 2490.23 798.338 2480.78 803.454L2480.78 909.517C2484.59 909.517 2488.19 909.189 2491.6 908.533L2491.6 811.719C2498.82 809.751 2507.48 808.767 2517.58 808.767 2543.16 808.767 2560.54 817.163 2569.72 833.955 2560.02 826.084 2551.49 820.672 2544.14 817.721 2536.8 814.769 2528.01 813.293 2517.78 813.293 2509.77 813.293 2502.75 814.08 2496.72 815.655L2496.72 908.533 2498.88 908.14C2524.73 903.417 2543.91 895.973 2556.44 885.806 2568.97 875.639 2575.23 862.422 2575.23 846.155 2575.23 831.594 2569.59 819.557 2558.31 810.046 2547.03 800.536 2532.8 795.78 2515.61 795.78ZM2381.1 794.599 2383.86 798.732 2382.48 800.503C2366.48 822.017 2355.78 840.055 2350.41 854.616L2347.06 850.484C2355.85 830.151 2367.2 811.522 2381.1 794.599ZM2155.97 793.419 2159.91 797.354C2150.86 808.899 2141.35 828.052 2131.38 854.813L2130.59 856.781 2126.26 853.042 2126.85 851.271C2136.56 824.116 2145.94 805.225 2154.99 794.599ZM1903.89 792.238 1907.23 796.174 1887.16 816.048 1887.16 1016.56 1920.22 1053.56 1817.9 1053.56 1812.98 1048.25 1908.61 1048.25 1881.65 1018.53 1881.65 814.277ZM2759.61 784.957 2850.32 784.957 2829.86 808.177 2862.13 893.972 2870 889.643 2840.88 812.113 2861.73 788.106 2866.85 790.27 2846.98 813.293 2874.53 886.691C2876.1 885.51 2877.02 884.789 2877.28 884.527L2883.77 879.017C2887.71 875.868 2890.2 873.638 2891.25 872.326 2894.66 887.281 2899.91 900.662 2906.99 912.469 2903.19 912.207 2900.43 912.075 2898.73 912.075 2886.27 912.075 2877.15 914.043 2871.38 917.979L2906.99 1014.6 2936.51 1037.42 2837.14 1037.42 2864.29 1014.6 2842.45 957.137C2828.02 971.699 2816.94 985.539 2809.2 998.657L2804.67 997.477C2812.41 984.621 2823.95 970.256 2839.3 954.383L2840.88 952.415 2837.14 943.757C2821.53 956.744 2808.6 971.83 2798.37 989.015L2794.83 983.309C2788.01 972.42 2779.29 960.023 2768.66 946.118L2766.69 943.757C2756.59 966.189 2751.54 984.424 2751.54 998.461 2751.54 1006.73 2752.95 1013.71 2755.77 1019.42 2758.59 1025.12 2765.38 1034.67 2776.14 1048.05 2777.05 1049.23 2778.5 1051.07 2780.47 1053.56L2674.21 1053.56 2670.27 1048.25 2770.43 1048.25 2767.08 1044.11C2758.43 1033.62 2752.75 1025.45 2750.06 1019.61 2747.37 1013.78 2746.03 1006.92 2746.03 999.051 2746.03 985.67 2751.47 965.73 2762.36 939.231L2753.7 930.179C2752 934.377 2749.83 940.543 2747.21 948.676L2740.72 968.747C2737.17 979.504 2735.4 988.425 2735.4 995.509 2735.4 1002.86 2736.65 1008.96 2739.14 1013.81 2741.64 1018.66 2746.88 1025.29 2754.88 1033.68 2755.67 1034.47 2756.85 1035.72 2758.43 1037.42L2660.04 1037.42C2678.8 1027.71 2693.65 1014.66 2704.61 998.264 2715.56 981.866 2726.42 956.547 2737.17 922.308L2737.96 919.553C2731.01 913.65 2720.97 910.042 2707.85 908.73 2715.07 897.973 2720.65 886.757 2724.58 875.081 2726.42 876.787 2727.53 877.836 2727.93 878.23L2736.78 886.494C2739.8 889.38 2743.41 892.332 2747.6 895.349L2751.15 886.691 2748.78 884.723C2742.23 878.951 2736.72 874.294 2732.26 870.752L2730.48 869.375 2733.63 865.046C2740.59 869.637 2747.28 874.95 2753.7 880.985L2780.47 807.39ZM2164.45 784.957 2374.41 784.957 2371.26 788.696C2357.88 805.094 2347.26 823.919 2339.39 845.171 2338.07 842.154 2337.09 839.924 2336.43 838.481 2329.22 822.739 2321.48 812.572 2313.21 807.98 2304.95 803.389 2290.13 801.093 2268.74 801.093 2258.9 801.093 2247.1 801.421 2233.32 802.077L2233.32 892.594 2245.92 892.594 2245.92 812.506C2255.89 811.588 2265.4 811.129 2274.45 811.129 2291.11 811.129 2303.38 812.9 2311.25 816.442 2319.12 819.984 2326.14 826.871 2332.3 837.103 2330.47 835.791 2329.15 834.808 2328.37 834.152 2317.74 825.756 2310.07 820.771 2305.34 819.197 2300.62 817.622 2291.31 816.835 2277.4 816.835 2273.2 816.835 2265.73 817.098 2254.97 817.622L2250.84 817.819 2250.84 892.594 2287.04 892.594 2312.43 857.765 2312.43 942.576 2287.04 909.714 2233.32 909.714 2233.32 1020.11 2245.92 1020.11 2245.92 918.963 2288.62 918.963 2293.73 924.079 2250.84 924.079 2250.84 1020.11C2277.6 1020.11 2296.62 1018.2 2307.9 1014.4 2319.18 1010.6 2328.04 1003.12 2334.47 991.967L2344.9 974.06C2345.29 973.273 2346.08 971.83 2347.26 969.731 2350.67 984.162 2354.9 995.706 2359.95 1004.36 2365 1013.02 2373.36 1023.12 2385.04 1034.67L2164.45 1034.67 2194.36 1011.84 2194.36 924.079C2183.34 925.391 2173.37 928.802 2164.45 934.311L2161.7 930.179C2169.7 924.407 2180.59 920.668 2194.36 918.963L2194.36 909.714C2192.13 909.452 2190.56 909.321 2189.64 909.321 2176.26 909.321 2164.06 914.24 2153.04 924.079 2159.07 903.089 2172.85 892.594 2194.36 892.594L2194.36 808.571ZM1910.59 784.957 2147.51 784.957C2146.33 787.188 2145.54 788.696 2145.15 789.483L2131.77 813.096C2127.18 821.492 2122.92 831.987 2118.98 844.581L2118.59 845.565 2116.62 844.187 2116.03 841.629C2112.22 826.674 2106.81 816.31 2099.79 810.538 2092.78 804.766 2082.05 801.88 2067.62 801.88 2061.72 801.88 2055.81 802.143 2049.91 802.667L2047.55 802.667 2047.55 1015.97 2070.77 1037.42 1980.84 1037.42 2008.39 1014.4 2008.39 818.606 1994.42 818.409C1980.91 818.409 1971.3 821.066 1965.59 826.379 1959.89 831.692 1956.51 841.039 1955.46 854.42L1950.34 854.42C1951.78 839.071 1955.75 828.38 1962.25 822.345 1968.74 816.31 1979.46 813.293 1994.42 813.293L2006.23 813.49 2008.39 813.49 2008.39 803.848C2001.7 803.061 1995.34 802.667 1989.3 802.667 1972.38 802.667 1960.18 806.111 1952.7 812.998 1945.23 819.885 1941.09 831.528 1940.31 847.926L1937.94 847.926C1932.3 829.691 1923.58 809.358 1911.77 786.925ZM1805.11 784.957 1898.38 784.957 1872.01 811.719 1872.01 1016.56 1896.8 1037.42 1808.04 1037.42 1799.97 1053.56 1594.54 1053.56 1589.62 1048.25 1797.81 1048.25 1803.51 1035.85C1789.08 1018.14 1777.54 998.395 1768.88 976.618L1768.09 974.454 1774.39 976.815 1775.77 980.16C1784.56 999.576 1795.05 1017.48 1807.25 1033.88L1808.1 1034.94 1832.46 1014.79 1832.46 809.554ZM1584.11 784.957 1678.17 784.957 1650.42 811.916 1650.42 1022.27 1651.99 1022.27 1659.08 1022.86 1660.85 1022.86 1660.85 813.884 1682.1 792.435 1684.86 796.764 1665.77 816.245 1665.77 1022.86C1671.67 1023.39 1677.31 1023.65 1682.69 1023.65 1703.55 1023.65 1719.32 1019.02 1730.02 1009.78 1740.71 1000.53 1747.89 985.277 1751.56 964.025 1763.9 999.838 1776.55 1024.3 1789.54 1037.42L1584.11 1037.42 1611.26 1015.19 1611.26 809.948ZM3082.71 781.612C3110.52 781.612 3133.45 787.647 3151.48 799.716 3169.52 811.785 3178.54 827.133 3178.54 845.761 3178.54 860.979 3172.64 874.458 3160.83 886.199 3149.02 897.94 3132.89 906.435 3112.42 911.682 3121.48 936.607 3133.77 960.876 3149.32 984.49 3164.87 1008.1 3180.44 1026.21 3196.05 1038.8L3193.1 1039.78C3173.56 1046.47 3154.4 1055.92 3135.64 1068.12L3132.69 1070.09 3131.71 1063.79C3123.31 1013.02 3111.57 969.994 3096.49 934.705L3095.7 932.737C3086.65 936.935 3074.51 940.28 3059.29 942.773L3057.72 942.969 3057.72 1016.56 3092.35 1053.56 2990.62 1053.56 2987.47 1048.25 3081.14 1048.25 3052.6 1017.94 3052.6 938.64 3056.74 938.05C3071.69 936.476 3084.22 933.524 3094.32 929.195 3093.53 927.621 3093.07 926.637 3092.94 926.243L3090.98 920.537C3090.84 920.143 3090.52 919.356 3089.99 918.176 3081.86 920.537 3066.51 923.095 3043.95 925.85L3041.78 926.243 3041.78 1014.01 3064.21 1037.42 2977.24 1037.42 3002.82 1014.01 3002.82 947.889 3001.25 948.086C2993.64 949.791 2986.75 951.693 2980.58 953.792L2979.01 954.383 2977.24 950.447C2983.01 948.217 2987.54 946.708 2990.82 945.921L3001.25 943.363 3002.82 942.969 3002.82 932.737C2995.08 932.737 2985.44 934.443 2973.89 937.853L2971.73 938.64C2971.99 936.804 2973.3 932.54 2975.66 925.85 2975.93 925.325 2976.84 922.373 2978.42 916.995 2978.55 916.601 2978.75 916.011 2979.01 915.224 2984.91 915.617 2989.5 915.814 2992.78 915.814 2996.33 915.814 2999.61 915.617 3002.62 915.224L3002.62 818.409C2996.59 814.736 2990.36 811.653 2983.93 809.161L2982.35 808.571C3013.45 790.598 3046.9 781.612 3082.71 781.612ZM2521.71 781.612C2549.52 781.612 2572.45 787.647 2590.48 799.716 2608.52 811.785 2617.54 827.133 2617.54 845.761 2617.54 860.979 2611.64 874.458 2599.83 886.199 2588.02 897.94 2571.89 906.435 2551.42 911.682 2560.48 936.607 2572.77 960.876 2588.32 984.49 2603.87 1008.1 2619.44 1026.21 2635.05 1038.8L2632.1 1039.78C2612.56 1046.47 2593.4 1055.92 2574.64 1068.12L2571.69 1070.09 2570.71 1063.79C2562.31 1013.02 2550.57 969.994 2535.49 934.705L2534.7 932.737C2525.65 936.935 2513.51 940.28 2498.29 942.773L2496.72 942.969 2496.72 1016.56 2531.35 1053.56 2429.62 1053.56 2426.47 1048.25 2520.14 1048.25 2491.6 1017.94 2491.6 938.64 2495.74 938.05C2510.69 936.476 2523.22 933.524 2533.32 929.195 2532.53 927.621 2532.07 926.637 2531.94 926.243L2529.98 920.537C2529.84 920.143 2529.52 919.356 2528.99 918.176 2520.86 920.537 2505.51 923.095 2482.95 925.85L2480.78 926.243 2480.78 1014.01 2503.21 1037.42 2416.24 1037.42 2441.82 1014.01 2441.82 947.889 2440.25 948.086C2432.64 949.791 2425.75 951.693 2419.58 953.792L2418.01 954.383 2416.24 950.447C2422.01 948.217 2426.54 946.708 2429.82 945.921L2440.25 943.363 2441.82 942.969 2441.82 932.737C2434.08 932.737 2424.44 934.443 2412.89 937.853L2410.73 938.64C2410.99 936.804 2412.3 932.54 2414.66 925.85 2414.93 925.325 2415.84 922.373 2417.42 916.995 2417.55 916.601 2417.75 916.011 2418.01 915.224 2423.91 915.617 2428.5 915.814 2431.78 915.814 2435.33 915.814 2438.61 915.617 2441.62 915.224L2441.62 818.409C2435.59 814.736 2429.36 811.653 2422.93 809.161L2421.35 808.571C2452.45 790.598 2485.9 781.612 2521.71 781.612ZM3513.06 727.498 3513.06 735.566 3511.09 737.534C3500.07 748.029 3490.59 758.524 3482.65 769.018 3474.72 779.513 3462.94 797.157 3447.33 821.951L3376.1 934.115 3376.1 1011.25 3411.12 1053.56 3287.94 1053.56 3285.58 1048.25 3400.7 1048.25 3370.79 1011.25 3370.79 932.737 3443.4 818.213 3454.81 800.109C3475.14 767.707 3494.56 743.503 3513.06 727.498ZM3504.2 715.692 3505.38 717.266 3503.41 719.43C3479.93 743.831 3460.58 768.625 3445.36 793.812 3439.46 803.389 3435.26 810.21 3432.77 814.277L3359.57 931.36 3359.57 1011.25 3388.1 1037.42 3292.27 1037.42 3320.61 1011.25 3320.61 931.36 3273.38 858.749 3263.15 842.416C3253.83 827.855 3246.19 817.229 3240.22 810.538 3234.25 803.848 3225.43 795.911 3213.76 786.728L3211.59 784.957 3310.97 784.957 3286.56 810.342 3352.09 909.124 3358.39 899.088 3299.95 810.342 3320.61 790.664 3324.74 793.812 3306.83 810.342 3361.34 894.365 3405.42 824.903C3418.14 804.701 3424.51 789.614 3424.51 779.644 3424.51 771.249 3418.93 761.672 3407.78 750.915 3445.95 741.732 3477.31 730.384 3501.84 716.872Z" stroke="#000000" stroke-width="7" stroke-linejoin="round" stroke-miterlimit="10" fill="#FFFFFF" fill-rule="evenodd"/><text fill="#000000" fill-opacity="0" font-family="Arial,Arial_MSFontService,sans-serif" font-size="366.399" x="1584.11" y="1036.29">Literary </text><path d="M2920.94 1357.32C2925.79 1380.94 2938.78 1397.66 2959.9 1407.5L2959.9 1409.08C2935.5 1401.99 2920.74 1385.07 2915.62 1358.31ZM2573.94 1357.32C2578.79 1380.94 2591.78 1397.66 2612.9 1407.5L2612.9 1409.08C2588.5 1401.99 2573.74 1385.07 2568.62 1358.31ZM3061.04 1300.65C3078.88 1314.16 3087.8 1332.66 3087.8 1356.14 3087.8 1381.2 3078.1 1402.42 3058.68 1419.8 3039.27 1437.18 3015.65 1445.87 2987.84 1445.87 2973.67 1445.87 2960.88 1444.43 2949.47 1441.54L2917.99 1433.87C2910.64 1432.03 2902.77 1431.11 2894.37 1431.11 2886.89 1431.11 2880.01 1432.62 2873.71 1435.64L2871.35 1429.93C2878.17 1426.79 2885.12 1425.21 2892.21 1425.21 2900.08 1425.21 2909.06 1426.39 2919.17 1428.75L2949.47 1436.03C2961.54 1438.92 2974.26 1440.36 2987.64 1440.36 3013.88 1440.36 3036.22 1432 3054.65 1415.27 3073.08 1398.55 3082.29 1378.31 3082.29 1354.57 3082.29 1334.5 3075.21 1316.92 3061.04 1301.83ZM2714.04 1300.65C2731.88 1314.16 2740.8 1332.66 2740.8 1356.14 2740.8 1381.2 2731.1 1402.42 2711.68 1419.8 2692.27 1437.18 2668.65 1445.87 2640.84 1445.87 2626.67 1445.87 2613.88 1444.43 2602.47 1441.54L2570.99 1433.87C2563.64 1432.03 2555.77 1431.11 2547.37 1431.11 2539.89 1431.11 2533.01 1432.62 2526.71 1435.64L2524.35 1429.93C2531.17 1426.79 2538.12 1425.21 2545.21 1425.21 2553.08 1425.21 2562.06 1426.39 2572.17 1428.75L2602.47 1436.03C2614.54 1438.92 2627.26 1440.36 2640.64 1440.36 2666.88 1440.36 2689.22 1432 2707.65 1415.27 2726.08 1398.55 2735.29 1378.31 2735.29 1354.57 2735.29 1334.5 2728.21 1316.92 2714.04 1301.83ZM2896.34 1293.57 2903.03 1297.31C2907.36 1305.05 2920.02 1311.47 2941.01 1316.59L2972.69 1324.46C2994.2 1329.84 3008.54 1334.46 3015.69 1338.33 3022.83 1342.2 3027.92 1348.07 3030.94 1355.95L3029.56 1356.73C3023.65 1349.91 3017.26 1344.93 3010.37 1341.78 3003.49 1338.63 2990.27 1334.76 2970.72 1330.17 2942.39 1323.61 2923.36 1317.93 2913.66 1313.15 2903.95 1308.36 2898.18 1301.83 2896.34 1293.57ZM2549.34 1293.57 2556.03 1297.31C2560.36 1305.05 2573.02 1311.47 2594.01 1316.59L2625.69 1324.46C2647.2 1329.84 2661.54 1334.46 2668.69 1338.33 2675.83 1342.2 2680.92 1348.07 2683.94 1355.95L2682.56 1356.73C2676.65 1349.91 2670.26 1344.93 2663.37 1341.78 2656.49 1338.63 2643.27 1334.76 2623.72 1330.17 2595.39 1323.61 2576.36 1317.93 2566.66 1313.15 2556.95 1308.36 2551.18 1301.83 2549.34 1293.57ZM2458.63 1266.02 2464.73 1269.76C2467.62 1281.56 2474.83 1297.77 2486.38 1318.36 2483.49 1317.97 2481.85 1317.77 2481.46 1317.77L2465.52 1316.39C2458.3 1315.74 2453.06 1315.41 2449.78 1315.41 2449.25 1315.41 2447.94 1315.47 2445.84 1315.61L2478.7 1402.78 2522.58 1441.54 2408.65 1441.54 2404.91 1436.23 2509.4 1436.23 2473.98 1404.94 2438.95 1312.26C2443.41 1311.08 2448.53 1310.49 2454.3 1310.49 2461.39 1310.49 2469.26 1311.08 2477.91 1312.26L2475.55 1307.93C2467.16 1292.45 2461.52 1278.48 2458.63 1266.02ZM2357.88 1236.11 2336.23 1293.17C2337.42 1294.49 2338.07 1295.27 2338.2 1295.53L2346.27 1304.59C2350.6 1309.31 2356.11 1316.66 2362.8 1326.63L2364.77 1329.58C2370.41 1322.49 2377.1 1315.47 2384.84 1308.52ZM2349.03 1213.28 2317.74 1295.93C2327.71 1306.16 2336.3 1316.26 2343.52 1326.23L2352.57 1338.83C2352.7 1338.96 2353.35 1339.81 2354.54 1341.38 2355.72 1340.2 2356.37 1339.48 2356.5 1339.22L2359.26 1335.87C2359.65 1335.35 2360.37 1334.5 2361.42 1333.32 2352.24 1319.15 2341.55 1306.36 2329.35 1294.94L2354.54 1228.43ZM2086.4 1199.31C2103.85 1199.31 2116.64 1205.15 2124.77 1216.82L2121.43 1214.86C2108.83 1207.9 2097.29 1204.43 2086.79 1204.43 2052.29 1204.43 2035.04 1238.34 2035.04 1306.16 2035.04 1355.75 2045.73 1388.61 2067.12 1404.75L2065.34 1406.71C2052.23 1397.4 2042.88 1385.17 2037.3 1370.02 2031.73 1354.86 2028.94 1334.37 2028.94 1308.52 2028.94 1235.71 2048.09 1199.31 2086.4 1199.31ZM2968.95 1194.39C2980.23 1194.39 2990.1 1196.79 2998.57 1201.57 3007.03 1206.36 3013.23 1213.09 3017.16 1221.74L3015.78 1222.53C3001.35 1207.18 2985.87 1199.51 2969.34 1199.51 2959.37 1199.51 2951.11 1202.39 2944.55 1208.17 2937.99 1213.94 2934.71 1221.28 2934.71 1230.2 2934.71 1239.91 2941.34 1249.88 2954.59 1260.11L2956.16 1261.1 2955.18 1262.67C2937.86 1254.93 2929.2 1243.72 2929.2 1229.02 2929.2 1218.79 2932.88 1210.46 2940.22 1204.03 2947.57 1197.61 2957.14 1194.39 2968.95 1194.39ZM2621.95 1194.39C2633.23 1194.39 2643.1 1196.79 2651.57 1201.57 2660.03 1206.36 2666.23 1213.09 2670.16 1221.74L2668.78 1222.53C2654.35 1207.18 2638.87 1199.51 2622.34 1199.51 2612.37 1199.51 2604.11 1202.39 2597.55 1208.17 2590.99 1213.94 2587.71 1221.28 2587.71 1230.2 2587.71 1239.91 2594.34 1249.88 2607.59 1260.11L2609.16 1261.1 2608.18 1262.67C2590.86 1254.93 2582.2 1243.72 2582.2 1229.02 2582.2 1218.79 2585.88 1210.46 2593.22 1204.03 2600.57 1197.61 2610.14 1194.39 2621.95 1194.39ZM2082.66 1187.31C2038.32 1187.31 2016.15 1226.27 2016.15 1304.19 2016.15 1376.21 2037.99 1412.22 2081.68 1412.22 2102.01 1412.22 2117.49 1402.68 2128.12 1383.59 2138.74 1364.51 2144.06 1336.6 2144.06 1299.86 2144.06 1258.28 2138.94 1229.29 2128.71 1212.89 2117.95 1195.83 2102.6 1187.31 2082.66 1187.31ZM3068.13 1180.81 3073.24 1183.37 3071.47 1186.32C3066.09 1195.38 3061.5 1204.03 3057.7 1212.3 3048.51 1231.58 3043.33 1242.34 3042.15 1244.57L3041.17 1245.95 3036.45 1243.98 3037.23 1242.21C3041.04 1233.55 3046.55 1222.27 3053.76 1208.36L3067.14 1182.39ZM2721.13 1180.81 2726.24 1183.37 2724.47 1186.32C2719.09 1195.38 2714.5 1204.03 2710.7 1212.3 2701.51 1231.58 2696.33 1242.34 2695.15 1244.57L2694.17 1245.95 2689.45 1243.98 2690.23 1242.21C2694.04 1233.55 2699.55 1222.27 2706.76 1208.36L2720.14 1182.39ZM2145.43 1180.42C2164.19 1189.47 2179.02 1204.95 2189.9 1226.86 2200.79 1248.77 2206.24 1274.09 2206.24 1302.82 2206.24 1345.06 2195.51 1379.17 2174.06 1405.14 2152.62 1431.11 2124.44 1444.1 2089.55 1444.1 2067.25 1444.1 2046.39 1436.56 2026.97 1421.47L2026.97 1420.49C2043.24 1432.43 2063.64 1438.4 2088.17 1438.4 2121.1 1438.4 2148.12 1426 2169.24 1401.2 2190.36 1376.41 2200.92 1344.73 2200.92 1306.16 2200.92 1277.43 2196.1 1252.31 2186.46 1230.8 2176.82 1209.28 2163.14 1193.21 2145.43 1182.58ZM2852.05 1180.22 2855.4 1184.16 2835.32 1204.03 2835.32 1404.55 2868.38 1441.54 2766.06 1441.54 2761.14 1436.23 2856.77 1436.23 2829.81 1406.52 2829.81 1202.26ZM2753.27 1172.94 2846.54 1172.94 2820.17 1199.7 2820.17 1404.55 2844.97 1425.41 2753.27 1425.41 2780.62 1402.78 2780.62 1197.54ZM2315.77 1172.94 2406.48 1172.94 2386.02 1196.16 2418.29 1281.96 2426.16 1277.63 2397.04 1200.1 2417.9 1176.09 2423.01 1178.26 2403.14 1201.28 2430.69 1274.68C2432.26 1273.5 2433.18 1272.77 2433.44 1272.51L2439.94 1267C2443.87 1263.85 2446.36 1261.62 2447.41 1260.31 2450.82 1275.27 2456.07 1288.65 2463.16 1300.45 2459.35 1300.19 2456.6 1300.06 2454.89 1300.06 2442.43 1300.06 2433.31 1302.03 2427.54 1305.96L2463.16 1402.58 2492.67 1425.41 2393.3 1425.41 2420.46 1402.58 2398.61 1345.12C2384.18 1359.68 2373.1 1373.52 2365.36 1386.64L2360.83 1385.46C2368.57 1372.61 2380.12 1358.24 2395.46 1342.37L2397.04 1340.4 2393.3 1331.74C2377.69 1344.73 2364.77 1359.82 2354.54 1377L2350.99 1371.29C2344.17 1360.41 2335.45 1348.01 2324.82 1334.1L2322.85 1331.74C2312.75 1354.17 2307.7 1372.41 2307.7 1386.45 2307.7 1394.71 2309.11 1401.7 2311.93 1407.4 2314.75 1413.11 2321.54 1422.65 2332.3 1436.03 2333.22 1437.21 2334.66 1439.05 2336.63 1441.54L2230.37 1441.54 2226.43 1436.23 2326.59 1436.23 2323.25 1432.1C2314.59 1421.6 2308.92 1413.44 2306.23 1407.6 2303.54 1401.76 2302.19 1394.91 2302.19 1387.04 2302.19 1373.66 2307.64 1353.72 2318.52 1327.22L2309.87 1318.16C2308.16 1322.36 2306 1328.53 2303.37 1336.66L2296.88 1356.73C2293.34 1367.49 2291.57 1376.41 2291.57 1383.49 2291.57 1390.84 2292.81 1396.94 2295.31 1401.79 2297.8 1406.65 2303.05 1413.27 2311.05 1421.67 2311.83 1422.46 2313.02 1423.7 2314.59 1425.41L2216.2 1425.41C2234.96 1415.7 2249.82 1402.65 2260.77 1386.25 2271.72 1369.85 2282.58 1344.53 2293.34 1310.29L2294.12 1307.54C2287.17 1301.64 2277.14 1298.03 2264.02 1296.72 2271.23 1285.96 2276.81 1274.74 2280.74 1263.07 2282.58 1264.77 2283.7 1265.82 2284.09 1266.22L2292.94 1274.48C2295.96 1277.37 2299.57 1280.32 2303.77 1283.33L2307.31 1274.68 2304.95 1272.71C2298.39 1266.94 2292.88 1262.28 2288.42 1258.74L2286.65 1257.36 2289.8 1253.03C2296.75 1257.62 2303.44 1262.94 2309.87 1268.97L2336.63 1195.38ZM2082.66 1170.38C2114.54 1170.38 2140.02 1182.45 2159.11 1206.59 2178.2 1230.73 2187.74 1263 2187.74 1303.41 2187.74 1341.58 2178.33 1372.02 2159.5 1394.71 2140.68 1417.41 2115.39 1428.75 2083.64 1428.75 2058.59 1428.75 2036.29 1420.75 2016.74 1404.75 1988.01 1381.13 1973.65 1346.17 1973.65 1299.86 1973.65 1260.25 1983.48 1228.76 2003.16 1205.41 2022.84 1182.06 2049.34 1170.38 2082.66 1170.38ZM2962.85 1168.61C2978.2 1168.61 2996.11 1171.37 3016.57 1176.88 3026.15 1179.5 3033.23 1180.81 3037.82 1180.81 3044.25 1180.81 3051.27 1178.58 3058.88 1174.12L3061.04 1175.11C3054.22 1184.29 3048.78 1193.87 3044.71 1203.84 3036.71 1223.51 3031.39 1235.58 3028.77 1240.04L3027.79 1241.22C3027.26 1239.78 3026.87 1238.67 3026.61 1237.88 3022.93 1226.07 3019.92 1217.87 3017.55 1213.28 3015.19 1208.69 3011.65 1204.3 3006.93 1200.1 2994.99 1189.47 2981.41 1184.16 2966.2 1184.16 2952.16 1184.16 2940.48 1188.06 2931.17 1195.87 2921.86 1203.67 2917.2 1213.48 2917.2 1225.29 2917.2 1247.32 2933.79 1262.35 2966.98 1270.35L3000.24 1278.42C3047.6 1289.83 3071.27 1314.82 3071.27 1353.39 3071.27 1374.9 3063.17 1392.97 3046.97 1407.6 3030.77 1422.23 3010.73 1429.54 2986.86 1429.54 2971.9 1429.54 2955.18 1427.24 2936.68 1422.65L2913.66 1416.95C2904.34 1414.72 2896.67 1413.6 2890.63 1413.6 2882.63 1413.6 2874.37 1416.16 2865.84 1421.28L2864.27 1418.52C2880.53 1393.99 2891.95 1370.64 2898.5 1348.47L2902.05 1349.45C2904.8 1370.05 2913.07 1386.05 2926.84 1397.47 2940.61 1408.88 2958.65 1414.59 2980.95 1414.59 2998.53 1414.59 3012.5 1410.52 3022.87 1402.39 3033.23 1394.25 3038.41 1383.3 3038.41 1369.52 3038.41 1353.65 3031.2 1340.53 3016.77 1330.17 3006.4 1322.82 2985.15 1316 2953.01 1309.7 2928.22 1304.85 2910.25 1296.78 2899.09 1285.5 2887.94 1274.22 2882.37 1258.54 2882.37 1238.47 2882.37 1217.74 2889.81 1200.92 2904.7 1188 2919.59 1175.07 2938.98 1168.61 2962.85 1168.61ZM2615.85 1168.61C2631.2 1168.61 2649.11 1171.37 2669.57 1176.88 2679.15 1179.5 2686.23 1180.81 2690.82 1180.81 2697.25 1180.81 2704.27 1178.58 2711.88 1174.12L2714.04 1175.11C2707.22 1184.29 2701.78 1193.87 2697.71 1203.84 2689.71 1223.51 2684.39 1235.58 2681.77 1240.04L2680.79 1241.22C2680.26 1239.78 2679.87 1238.67 2679.61 1237.88 2675.93 1226.07 2672.92 1217.87 2670.55 1213.28 2668.19 1208.69 2664.65 1204.3 2659.93 1200.1 2647.99 1189.47 2634.41 1184.16 2619.2 1184.16 2605.16 1184.16 2593.48 1188.06 2584.17 1195.87 2574.86 1203.67 2570.2 1213.48 2570.2 1225.29 2570.2 1247.32 2586.79 1262.35 2619.98 1270.35L2653.24 1278.42C2700.6 1289.83 2724.27 1314.82 2724.27 1353.39 2724.27 1374.9 2716.17 1392.97 2699.97 1407.6 2683.77 1422.23 2663.73 1429.54 2639.86 1429.54 2624.9 1429.54 2608.18 1427.24 2589.68 1422.65L2566.66 1416.95C2557.34 1414.72 2549.67 1413.6 2543.63 1413.6 2535.63 1413.6 2527.37 1416.16 2518.84 1421.28L2517.27 1418.52C2533.53 1393.99 2544.95 1370.64 2551.5 1348.47L2555.05 1349.45C2557.8 1370.05 2566.07 1386.05 2579.84 1397.47 2593.61 1408.88 2611.65 1414.59 2633.95 1414.59 2651.53 1414.59 2665.5 1410.52 2675.87 1402.39 2686.23 1394.25 2691.41 1383.3 2691.41 1369.52 2691.41 1353.65 2684.2 1340.53 2669.77 1330.17 2659.4 1322.82 2638.15 1316 2606.01 1309.7 2581.22 1304.85 2563.25 1296.78 2552.09 1285.5 2540.94 1274.22 2535.37 1258.54 2535.37 1238.47 2535.37 1217.74 2542.81 1200.92 2557.7 1188 2572.59 1175.07 2591.98 1168.61 2615.85 1168.61Z" stroke="#000000" stroke-width="7" stroke-linejoin="round" stroke-miterlimit="10" fill="#FFFFFF" fill-rule="evenodd"/><text fill="#000000" fill-opacity="0" font-family="Arial,Arial_MSFontService,sans-serif" font-size="277.259" x="1973.65" y="1411.22">Oasis</text></g></svg>