<svg width="1503" height="1502" xmlns="http://www.w3.org/2000/svg" xmlns:xlink="http://www.w3.org/1999/xlink" xml:space="preserve" overflow="hidden"><g transform="translate(-2173 -487)"><path d="M2175.5 739.005C2175.5 601.207 2287.21 489.5 2425 489.5L3424 489.5C3561.79 489.5 3673.5 601.207 3673.5 739.005L3673.5 1737C3673.5 1874.79 3561.79 1986.5 3424 1986.5L2425 1986.5C2287.21 1986.5 2175.5 1874.79 2175.5 1737Z" stroke="#172C51" stroke-width="4.58333" stroke-miterlimit="8" fill="#C00000" fill-rule="evenodd"/><g><g><g><path d="M3485.73 1083.08 3417.1 1058.01 3417.1 914.151 3485.73 885.116 3021.16 713.543 2456.29 911.511C2402.18 937.907 2400.86 1010.5 2400.86 1069.89 2400.86 1089.68 2403.5 1109.48 2407.46 1127.96 2362.59 1156.99 2361.27 1224.3 2361.27 1281.05 2361.27 1327.25 2371.83 1369.48 2400.86 1395.88 2394.26 1418.31 2398.22 1446.03 2398.22 1479.02 2398.22 1538.41 2414.06 1592.52 2466.85 1611L2833.75 1762.78 3483.09 1493.54 3414.46 1468.46 3414.46 1323.29 3483.09 1294.25 3377.51 1254.66 3377.51 1127.96 3485.73 1083.08ZM2472.13 1003.9 2839.03 1147.75 3365.63 935.268 3365.63 1048.77 2839.03 1267.86 2472.13 1122.68 2472.13 1003.9ZM3362.99 1459.22 2836.39 1676.99 2468.17 1531.81 2468.17 1428.87 2796.8 1563.49 3364.31 1339.12 3362.99 1459.22ZM3326.04 1261.26 2799.44 1479.02 2432.54 1333.84 2432.54 1215.06 2810 1365.52 3327.36 1149.07 3327.36 1261.26Z" fill="#FFFFFF"/></g></g></g></g></svg>